<svg xmlns:xlink="http://www.w3.org/1999/xlink" xmlns="http://www.w3.org/2000/svg" width="982px" height="560px" viewBox="0 0 982 560" style="overflow: hidden; display: block; width: 982px; height: 560px;"><defs/><g style="pointer-events:visiblePainted" transform="translate(9.586621205478558 0)" image-rendering="auto" shape-rendering="auto"><g><path fill="none" stroke="rgb(169,169,169)" d="M 168.33333333333334,240 L 168.33333333333334,250 L 35,250 L 35,330" stroke-opacity="1" stroke-width="1" stroke-linecap="butt" stroke-linejoin="miter" stroke-miterlimit="10"/></g><g><path fill="none" stroke="rgb(169,169,169)" d="M 201.66666666666666,240 L 201.66666666666666,310 L 466.25,310 L 466.25,330" stroke-opacity="1" stroke-width="1" stroke-linecap="butt" stroke-linejoin="miter" stroke-miterlimit="10"/></g><g><path fill="none" stroke="rgb(169,169,169)" d="M 185,240 L 185,330" stroke-opacity="1" stroke-width="1" stroke-linecap="butt" stroke-linejoin="miter" stroke-miterlimit="10"/></g><g><path fill="none" stroke="rgb(169,169,169)" d="M 345.4166666666667,140 L 345.4166666666667,150 L 185,150 L 185,180" stroke-opacity="1" stroke-width="1" stroke-linecap="butt" stroke-linejoin="miter" stroke-miterlimit="10"/></g><g><path fill="none" stroke="rgb(169,169,169)" d="M 341.25,240 L 341.25,250 L 335,250 L 335,330" stroke-opacity="1" stroke-width="1" stroke-linecap="butt" stroke-linejoin="miter" stroke-miterlimit="10"/></g><g><path fill="none" stroke="rgb(169,169,169)" d="M 622.5,470 L 622.5,480 L 497.5,480 L 497.5,500" stroke-opacity="1" stroke-width="1" stroke-linecap="butt" stroke-linejoin="miter" stroke-miterlimit="10"/></g><g><path fill="none" stroke="rgb(169,169,169)" d="M 647.5,470 L 647.5,500" stroke-opacity="1" stroke-width="1" stroke-linecap="butt" stroke-linejoin="miter" stroke-miterlimit="10"/></g><g><path fill="none" stroke="rgb(169,169,169)" d="M 635,390 L 635,410" stroke-opacity="1" stroke-width="1" stroke-linecap="butt" stroke-linejoin="miter" stroke-miterlimit="10"/></g><g><path fill="none" stroke="rgb(169,169,169)" d="M 374.58333333333337,240 L 374.58333333333337,290 L 618.3333333333334,290 L 618.3333333333334,330" stroke-opacity="1" stroke-width="1" stroke-linecap="butt" stroke-linejoin="miter" stroke-miterlimit="10"/></g><g><path fill="none" stroke="rgb(169,169,169)" d="M 357.9166666666667,240 L 357.9166666666667,300 L 478.75,300 L 478.75,330" stroke-opacity="1" stroke-width="1" stroke-linecap="butt" stroke-linejoin="miter" stroke-miterlimit="10"/></g><g><path fill="none" stroke="rgb(169,169,169)" d="M 357.9166666666667,140 L 357.9166666666667,180" stroke-opacity="1" stroke-width="1" stroke-linecap="butt" stroke-linejoin="miter" stroke-miterlimit="10"/></g><g><path fill="none" stroke="rgb(169,169,169)" d="M 524.5833333333334,240 L 524.5833333333334,260 L 785,260 L 785,330" stroke-opacity="1" stroke-width="1" stroke-linecap="butt" stroke-linejoin="miter" stroke-miterlimit="10"/></g><g><path fill="none" stroke="rgb(169,169,169)" d="M 507.9166666666667,240 L 507.9166666666667,270 L 635,270 L 635,330" stroke-opacity="1" stroke-width="1" stroke-linecap="butt" stroke-linejoin="miter" stroke-miterlimit="10"/></g><g><path fill="none" stroke="rgb(169,169,169)" d="M 491.25,240 L 491.25,330" stroke-opacity="1" stroke-width="1" stroke-linecap="butt" stroke-linejoin="miter" stroke-miterlimit="10"/></g><g><path fill="none" stroke="rgb(169,169,169)" d="M 370.4166666666667,140 L 370.4166666666667,160 L 507.9166666666667,160 L 507.9166666666667,180" stroke-opacity="1" stroke-width="1" stroke-linecap="butt" stroke-linejoin="miter" stroke-miterlimit="10"/></g><g><path fill="none" stroke="rgb(169,169,169)" d="M 674.5833333333333,240 L 674.5833333333333,250 L 935,250 L 935,330" stroke-opacity="1" stroke-width="1" stroke-linecap="butt" stroke-linejoin="miter" stroke-miterlimit="10"/></g><g><path fill="none" stroke="rgb(169,169,169)" d="M 657.9166666666666,240 L 657.9166666666666,270 L 651.6666666666666,270 L 651.6666666666666,330" stroke-opacity="1" stroke-width="1" stroke-linecap="butt" stroke-linejoin="miter" stroke-miterlimit="10"/></g><g><path fill="none" stroke="rgb(169,169,169)" d="M 641.25,240 L 641.25,280 L 503.75,280 L 503.75,330" stroke-opacity="1" stroke-width="1" stroke-linecap="butt" stroke-linejoin="miter" stroke-miterlimit="10"/></g><g><path fill="none" stroke="rgb(169,169,169)" d="M 382.9166666666667,140 L 382.9166666666667,150 L 657.9166666666666,150 L 657.9166666666666,180" stroke-opacity="1" stroke-width="1" stroke-linecap="butt" stroke-linejoin="miter" stroke-miterlimit="10"/></g><g><path fill="none" stroke="rgb(169,169,169)" d="M 364.1666666666667,60 L 364.1666666666667,80" stroke-opacity="1" stroke-width="1" stroke-linecap="butt" stroke-linejoin="miter" stroke-miterlimit="10"/></g><g transform="translate(339.1666666666667 0)"><g transform="scale(2.78)">
            <svg svgBox="0 0 18 18" fill="msportalfx-svg-placeholder" role="presentation" focusable="false"><g><title/><defs><linearGradient id="ygc8_0" x1="9.88" x2="11.52" y1="8.59" y2="10.23" gradientTransform="rotate(-.08 -285.464 -1454.08)" gradientUnits="userSpaceOnUse"><stop offset="0" stop-color="#86d633"/><stop offset=".24" stop-color="#83d232"/><stop offset=".5" stop-color="#7cc52f"/><stop offset=".76" stop-color="#6fb02a"/><stop offset="1" stop-color="#5e9624"/></linearGradient><linearGradient id="ygc8_1" x1="6.18" x2="7.81" y1="8.59" y2="10.23"/><linearGradient id="ygc8_2" x1="2.48" x2="4.11" y1="8.59" y2="10.23"/></defs><title>Icon-networking-61</title><circle cx="12.74" cy="8.99" r="1.16" fill="url(#ygc8_0)"/><circle cx="9.04" cy="9" r="1.16" fill="url(#ygc8_1)"/><circle cx="5.34" cy="9" r="1.16" fill="url(#ygc8_2)"/><path fill="#50e6ff" d="M6.182 13.638l-.664.665a.3.3 0 01-.424 0L.18 9.404a.6.6 0 01-.001-.848l.663-.666 5.34 5.324a.3.3 0 010 .425z"/><path fill="#1490df" d="M5.418 3.708l.666.664a.3.3 0 010 .424L.838 10.057l-.666-.663a.6.6 0 01-.001-.849L4.994 3.71a.3.3 0 01.424 0z"/><path fill="#50e6ff" d="M17.157 7.88l.663.666a.6.6 0 010 .848l-4.915 4.9a.3.3 0 01-.424 0l-.664-.666a.3.3 0 010-.424l5.34-5.324z"/><path fill="#1490df" d="M17.818 9.387l-.665.664-5.247-5.261a.3.3 0 010-.425l.674-.67a.3.3 0 01.424 0l4.823 4.836a.6.6 0 01-.002.849z"/></g></svg>
        </g></g><g transform="translate(339.1666666666667 80)"><g transform="scale(2.78)">
            <svg svgBox="0 0 18 18" fill="msportalfx-svg-placeholder" role="presentation" focusable="false"><g><title/><defs><linearGradient id="ygc8_3" x1="9.033" x2="9.033" y1="10.305" y2="7.695" gradientUnits="userSpaceOnUse"><stop offset="0" stop-color="#5e9624"/><stop offset=".241" stop-color="#6fb02a"/><stop offset=".501" stop-color="#7cc52f"/><stop offset=".756" stop-color="#83d232"/><stop offset="1" stop-color="#86d633"/></linearGradient></defs><path fill="url(#ygc8_3)" d="M9.031 7.7A1.305 1.305 0 1010.338 9a1.305 1.305 0 00-1.307-1.3z"/><path fill="#50e6ff" d="M6.34 13.375l-.626.629a.284.284 0 01-.402 0L.673 9.38a.568.568 0 010-.804l.626-.629 5.04 5.027a.284.284 0 01.002.402z"/><path fill="#1490df" d="M5.62 3.996l.627.626a.284.284 0 010 .402L1.295 9.99l-.626-.624a.568.568 0 010-.803L5.22 3.999a.284.284 0 01.401 0z"/><path fill="#50e6ff" d="M16.702 7.947l.627.629a.568.568 0 01-.001.803l-4.639 4.626a.284.284 0 01-.402 0l-.627-.63a.284.284 0 01.001-.401l5.041-5.027z"/><path fill="#1490df" d="M17.333 9.364l-.629.627-4.953-4.967a.284.284 0 010-.402l.628-.626a.284.284 0 01.402 0l4.552 4.566a.568.568 0 010 .803z"/></g></svg>
        </g></g><g transform="translate(160 180)"><g transform="scale(2.78)">
            <svg svgBox="0 0 18 18" fill="msportalfx-svg-placeholder" role="presentation" focusable="false"><g><title/><defs><linearGradient id="ygc8_4" x1="9.01" x2="9.01" y1="16.5" y2="1.5" gradientUnits="userSpaceOnUse"><stop offset="0" stop-color="#5e9641"/><stop offset=".34" stop-color="#6baa42"/><stop offset=".67" stop-color="#73b743"/><stop offset="1" stop-color="#76bb43"/></linearGradient></defs><title>Icon-networking-80</title><path fill="#ffca00" d="M15.89 2.91h1.27a.34.34 0 01.34.34v3.5a.34.34 0 01-.34.34h-1.27V2.91zm0 6.09h1.27a.34.34 0 01.34.34v5.86a.34.34 0 01-.34.34h-1.27V9z"/><rect width="13.76" height="15" x="2.13" y="1.5" fill="url(#ygc8_4)" rx=".69"/><path fill="#b4ec36" d="M5.9 12.9h-.71a.2.2 0 01-.19-.21V4.34a.19.19 0 01.19-.2h1.93a.19.19 0 01.19.2.2.2 0 01-.19.21H5.38v7.93h.52a.2.2 0 01.19.21.21.21 0 01-.19.21z"/><path fill="#b4ec36" d="M6 13.92H4.4a.2.2 0 01-.19-.21L4.08 3.38a.2.2 0 01.06-.15.16.16 0 01.13-.06h2.85v.41H4.47l.12 9.92H6zm6-.92h-1.59a.19.19 0 01-.14-.07.18.18 0 01-.06-.14V7.9a.19.19 0 01.19-.2h.91V5.45h.38v2.44a.2.2 0 01-.18.21h-.91v4.42H12z"/><rect width="6.14" height="3.11" x="7.07" y="2.29" fill="#365615" rx=".26"/><rect width="4.9" height="1.09" x="5.86" y="12.69" fill="#365615" rx=".26" transform="rotate(90 8.305 13.235)"/><rect width="4.9" height="1.09" x="3.99" y="12.71" fill="#365615" rx=".26" transform="rotate(90 6.44 13.26)"/><rect width="4.9" height="1.09" x="9.98" y="12.71" fill="#f2f2f2" rx=".26" transform="rotate(90 12.425 13.255)"/><ellipse cx="8.11" cy="8.06" fill="#f2f2f2" rx="1.04" ry="1.12"/><path fill="#3b3b3b" d="M2.11 12.25H.84a.34.34 0 01-.34-.3V6.09a.34.34 0 01.34-.34h1.27v6.5z"/></g></svg>
        </g></g><g transform="translate(10 330)"><g transform="scale(2.78)">
            <svg svgBox="0 0 18 18" fill="msportalfx-svg-placeholder" role="presentation" focusable="false"><g><title/><defs><linearGradient id="ygc8_5" x1="8.88" x2="8.88" y1="12.21" y2=".21" gradientUnits="userSpaceOnUse"><stop offset="0" stop-color="#0078d4"/><stop offset=".82" stop-color="#5ea0ef"/></linearGradient><linearGradient id="ygc8_6" x1="8.88" x2="8.88" y1="16.84" y2="12.21" gradientUnits="userSpaceOnUse"><stop offset=".15" stop-color="#ccc"/><stop offset="1" stop-color="#707070"/></linearGradient></defs><title>Icon-compute-21</title><rect width="18" height="12" x="-.12" y=".21" fill="url(#ygc8_5)" rx=".6"/><path fill="#50e6ff" d="M11.88 4.46v3.49l-3 1.76v-3.5l3-1.75z"/><path fill="#c3f1ff" d="M11.88 4.46l-3 1.76-3-1.76 3-1.75 3 1.75z"/><path fill="#9cebff" d="M8.88 6.22v3.49l-3-1.76V4.46l3 1.76z"/><path fill="#c3f1ff" d="M5.88 7.95l3-1.74v3.5l-3-1.76z"/><path fill="#9cebff" d="M11.88 7.95l-3-1.74v3.5l3-1.76z"/><path fill="url(#ygc8_6)" d="M12.49 15.84c-1.78-.28-1.85-1.56-1.85-3.63H7.11c0 2.07-.06 3.35-1.84 3.63a1 1 0 00-.89 1h9a1 1 0 00-.89-1z"/></g></svg>
        </g></g><g transform="translate(460 330)"><g transform="scale(2.78)">
            <svg svgBox="0 0 18 18" fill="msportalfx-svg-placeholder" role="presentation" focusable="false"><g><title/><defs><linearGradient id="ygc8_7" x1="9.01" x2="9.01" y1=".75" y2="17.25" gradientUnits="userSpaceOnUse"><stop offset="0" stop-color="#5ea0ef"/><stop offset=".18" stop-color="#559cec"/><stop offset=".47" stop-color="#3c91e5"/><stop offset=".84" stop-color="#1380da"/><stop offset="1" stop-color="#0078d4"/></linearGradient></defs><title>Icon-networking-67</title><path fill="#0078d4" d="M16.36 8.4c0 4.84-5.85 8.74-7.12 9.53a.46.46 0 01-.48 0c-1.27-.79-7.12-4.69-7.12-9.53V2.58a.46.46 0 01.45-.46C6.64 2 5.59 0 9 0s2.36 2 6.91 2.12a.46.46 0 01.45.46z"/><path fill="#6bb9f2" d="M15.75 8.45c0 4.44-5.36 8-6.53 8.74a.43.43 0 01-.44 0c-1.17-.72-6.53-4.3-6.53-8.74V3.11a.42.42 0 01.41-.42C6.83 2.58 5.87.75 9 .75s2.17 1.83 6.34 1.94a.42.42 0 01.41.42z"/><path fill="url(#ygc8_7)" d="M9 9V.75c3.13 0 2.17 1.83 6.34 1.94a.43.43 0 01.41.43v5.34a4.89 4.89 0 010 .54zm0 0H2.28c.4 4.18 5.38 7.5 6.5 8.19a.39.39 0 00.18.06H9z"/><path fill="#50e6ff" d="M2.66 2.69C6.83 2.58 5.87.75 9 .75V9H2.28a4.89 4.89 0 010-.54V3.12a.43.43 0 01.38-.43zM15.72 9H9v8.25a.39.39 0 00.18-.06c1.16-.69 6.14-4.01 6.54-8.19z"/></g></svg>
        </g></g><g transform="translate(160 330)"><g transform="scale(2.78)">
            <svg svgBox="0 0 18 18" fill="msportalfx-svg-placeholder" role="presentation" focusable="false"><g><title/><defs><linearGradient id="ygc8_8" x1="9" x2="9" y1="15.83" y2="5.79" gradientUnits="userSpaceOnUse"><stop offset="0" stop-color="#32bedd"/><stop offset=".18" stop-color="#32caea"/><stop offset=".41" stop-color="#32d2f2"/><stop offset=".78" stop-color="#32d4f5"/></linearGradient></defs><title>Icon-networking-69</title><path fill="url(#ygc8_8)" d="M.5 5.79h17v9.48a.57.57 0 01-.57.57H1.07a.57.57 0 01-.57-.57V5.79z"/><path fill="#767676" d="M1.07 2.17h15.86a.57.57 0 01.57.57v3.05H.5V2.73a.57.57 0 01.57-.56z"/><circle cx="12.82" cy="10.19" r="1.38" fill="#f2f2f2"/><circle cx="9.06" cy="10.19" r="1.38" fill="#f2f2f2"/><circle cx="5.18" cy="10.19" r="1.38" fill="#f2f2f2"/><rect width="12.43" height="1.46" x="2.79" y="3.25" fill="#f2f2f2" rx=".28"/></g></svg>
        </g></g><g transform="translate(332.9166666666667 180)"><g transform="scale(2.78)">
            <svg svgBox="0 0 18 18" fill="msportalfx-svg-placeholder" role="presentation" focusable="false"><g><title/><defs><linearGradient id="ygc8_9" x1="9.01" x2="9.01" y1="16.5" y2="1.5" gradientUnits="userSpaceOnUse"><stop offset="0" stop-color="#5e9641"/><stop offset=".34" stop-color="#6baa42"/><stop offset=".67" stop-color="#73b743"/><stop offset="1" stop-color="#76bb43"/></linearGradient></defs><title>Icon-networking-80</title><path fill="#ffca00" d="M15.89 2.91h1.27a.34.34 0 01.34.34v3.5a.34.34 0 01-.34.34h-1.27V2.91zm0 6.09h1.27a.34.34 0 01.34.34v5.86a.34.34 0 01-.34.34h-1.27V9z"/><rect width="13.76" height="15" x="2.13" y="1.5" fill="url(#ygc8_9)" rx=".69"/><path fill="#b4ec36" d="M5.9 12.9h-.71a.2.2 0 01-.19-.21V4.34a.19.19 0 01.19-.2h1.93a.19.19 0 01.19.2.2.2 0 01-.19.21H5.38v7.93h.52a.2.2 0 01.19.21.21.21 0 01-.19.21z"/><path fill="#b4ec36" d="M6 13.92H4.4a.2.2 0 01-.19-.21L4.08 3.38a.2.2 0 01.06-.15.16.16 0 01.13-.06h2.85v.41H4.47l.12 9.92H6zm6-.92h-1.59a.19.19 0 01-.14-.07.18.18 0 01-.06-.14V7.9a.19.19 0 01.19-.2h.91V5.45h.38v2.44a.2.2 0 01-.18.21h-.91v4.42H12z"/><rect width="6.14" height="3.11" x="7.07" y="2.29" fill="#365615" rx=".26"/><rect width="4.9" height="1.09" x="5.86" y="12.69" fill="#365615" rx=".26" transform="rotate(90 8.305 13.235)"/><rect width="4.9" height="1.09" x="3.99" y="12.71" fill="#365615" rx=".26" transform="rotate(90 6.44 13.26)"/><rect width="4.9" height="1.09" x="9.98" y="12.71" fill="#f2f2f2" rx=".26" transform="rotate(90 12.425 13.255)"/><ellipse cx="8.11" cy="8.06" fill="#f2f2f2" rx="1.04" ry="1.12"/><path fill="#3b3b3b" d="M2.11 12.25H.84a.34.34 0 01-.34-.3V6.09a.34.34 0 01.34-.34h1.27v6.5z"/></g></svg>
        </g></g><g transform="translate(310 330)"><g transform="scale(2.78)">
            <svg svgBox="0 0 18 18" fill="msportalfx-svg-placeholder" role="presentation" focusable="false"><g><title/><defs><linearGradient id="ygc8_10" x1="8.88" x2="8.88" y1="12.21" y2=".21" gradientUnits="userSpaceOnUse"><stop offset="0" stop-color="#0078d4"/><stop offset=".82" stop-color="#5ea0ef"/></linearGradient><linearGradient id="ygc8_11" x1="8.88" x2="8.88" y1="16.84" y2="12.21" gradientUnits="userSpaceOnUse"><stop offset=".15" stop-color="#ccc"/><stop offset="1" stop-color="#707070"/></linearGradient></defs><title>Icon-compute-21</title><rect width="18" height="12" x="-.12" y=".21" fill="url(#ygc8_10)" rx=".6"/><path fill="#50e6ff" d="M11.88 4.46v3.49l-3 1.76v-3.5l3-1.75z"/><path fill="#c3f1ff" d="M11.88 4.46l-3 1.76-3-1.76 3-1.75 3 1.75z"/><path fill="#9cebff" d="M8.88 6.22v3.49l-3-1.76V4.46l3 1.76z"/><path fill="#c3f1ff" d="M5.88 7.95l3-1.74v3.5l-3-1.76z"/><path fill="#9cebff" d="M11.88 7.95l-3-1.74v3.5l3-1.76z"/><path fill="url(#ygc8_11)" d="M12.49 15.84c-1.78-.28-1.85-1.56-1.85-3.63H7.11c0 2.07-.06 3.35-1.84 3.63a1 1 0 00-.89 1h9a1 1 0 00-.89-1z"/></g></svg>
        </g></g><g transform="translate(610 330)"><g transform="scale(2.78)">
            <svg svgBox="0 0 18 18" fill="msportalfx-svg-placeholder" role="presentation" focusable="false"><g><title/><defs><linearGradient id="ygc8_12" x1="10.31" x2="10.31" y1="12.7" y2="6.83" gradientUnits="userSpaceOnUse"><stop offset="0" stop-color="#0078d4"/><stop offset=".82" stop-color="#5ea0ef"/></linearGradient><linearGradient id="ygc8_13" x1="10.31" x2="10.31" y1="14.97" y2="12.7" gradientUnits="userSpaceOnUse"><stop offset=".15" stop-color="#ccc"/><stop offset="1" stop-color="#707070"/></linearGradient></defs><title>Icon-compute-25</title><path fill="#0078d4" d="M2.12.5h1.97v.57H2.12zm14.51.57h.32v.31h.55V.5h-.87v.57zM1.41 16.89h-.28v-.32H.5v.93h.91v-.61zm15.54-.29v.29h-.32v.61h.87v-.9h-.55zM1.13 1.36v-.29h.28V.5H.5v.86h.63z"/><rect width="8.79" height="5.88" x="3.37" y="3.55" fill="#0078d4" rx=".29"/><path fill="#50e6ff" d="M9.23 5.64v1.71l-1.46.86V6.49l1.46-.85z"/><path fill="#c3f1ff" d="M9.23 5.64l-1.46.86-1.47-.86 1.47-.86 1.46.86z"/><path fill="#9cebff" d="M7.77 6.5v1.71L6.3 7.35V5.64l1.47.86z"/><rect width="8.79" height="5.88" x="5.91" y="6.83" fill="url(#ygc8_12)" rx=".29"/><path fill="#50e6ff" d="M11.77 8.91v1.71l-1.46.86V9.77l1.46-.86z"/><path fill="#c3f1ff" d="M11.77 8.91l-1.46.86-1.47-.86 1.47-.86 1.46.86z"/><path fill="#9cebff" d="M10.31 9.77v1.71l-1.47-.86V8.91l1.47.86z"/><path fill="#c3f1ff" d="M8.84 10.62l1.47-.85v1.71l-1.47-.86z"/><path fill="#9cebff" d="M11.77 10.62l-1.46-.85v1.71l1.46-.86z"/><path fill="url(#ygc8_13)" d="M12.07 14.48c-.87-.14-.9-.77-.9-1.78H9.44c0 1 0 1.64-.9 1.78a.51.51 0 00-.43.49h4.4a.51.51 0 00-.44-.49z"/><path fill="#0078d4" d="M5.07.5h1.97v.57H5.07zm2.94 0h1.97v.57H8.01zm2.95 0h1.97v.57h-1.97zm2.95 0h1.97v.57h-1.97zM2.14 16.89h1.97v.57H2.14zm2.94 0h1.97v.57H5.08zm2.95 0H10v.57H8.03zm2.95 0h1.97v.57h-1.97zm2.94 0h1.97v.57h-1.97zm3.01-14.84h.57v1.97h-.57zm0 2.94h.57v1.97h-.57zm0 2.95h.57v1.97h-.57zm0 2.94h.57v1.97h-.57zm0 2.95h.57v1.97h-.57zM.5 2.03h.57V4H.5zm0 2.95h.57v1.97H.5zm0 2.94h.57v1.97H.5zm0 2.95h.57v1.97H.5zm0 2.94h.57v1.97H.5z"/></g></svg>
        </g></g><g transform="translate(610 410)"><g transform="scale(2.78)">
            <svg svgBox="0 0 18 18" fill="msportalfx-svg-placeholder" role="presentation" focusable="false"><g><title/><defs><linearGradient id="ygc8_14" x1="9" x2="9" y1="19.85" y2="-1.02" gradientUnits="userSpaceOnUse"><stop offset="0" stop-color="#5e9624"/><stop offset=".02" stop-color="#5f9724"/><stop offset="1" stop-color="#76bc2d"/></linearGradient></defs><title>Icon-networking-62</title><path fill="url(#ygc8_14)" d="M.18 8.57L8.57.18a.6.6 0 01.86 0l8.39 8.39a.6.6 0 010 .86l-8.4 8.4a.6.6 0 01-.84 0l-8.4-8.4a.6.6 0 010-.86z"/><path fill="#b4ec36" d="M11.2 4L9.08 1.89a.12.12 0 00-.16 0L6.8 4a.1.1 0 00.08.18h1.24a.11.11 0 01.11.11v2a.11.11 0 00.11.11h1.32a.11.11 0 00.11-.11v-2a.11.11 0 01.11-.11h1.24A.1.1 0 0011.2 4zM4 6.61L1.9 8.74a.11.11 0 000 .15L4 11a.11.11 0 00.19-.08V9.69a.11.11 0 01.11-.11h2a.1.1 0 00.1-.11V8.15A.1.1 0 006.33 8h-2a.1.1 0 01-.11-.1V6.69A.11.11 0 004 6.61zM14.08 11l2.13-2.12a.11.11 0 000-.15l-2.13-2.12a.11.11 0 00-.18.08v1.25a.1.1 0 01-.11.1h-2a.1.1 0 00-.1.11v1.32a.1.1 0 00.1.11h2a.11.11 0 01.11.11v1.24a.11.11 0 00.18.07z"/><path d="M11.79 9a2.79 2.79 0 10-3.54 2.67v.95a1.71 1.71 0 101.57 0v-1A2.77 2.77 0 0011.79 9z" fill="#fff"/><circle cx="9.01" cy="8.99" r="1.62" fill="#5ea0ef"/></g></svg>
        </g></g><g transform="translate(472.5 500)"><g transform="scale(1.0)">
            <svg svgBox="0 0 50 50" fill="msportalfx-svg-placeholder" role="presentation" focusable="false"><g><title/><path d="M27.1 21.8h-4.2L19.7 50h10.6z" fill="#59b4d9"/><path d="M40.3 22.5C40.3 14 33.5 7.1 25 7.1S9.7 14 9.7 22.5c0 5.6 3 10.5 7.6 13.2.5-.8.9-1.6 1.3-2.3-3.7-2.2-6.2-6.2-6.2-10.9 0-7 5.7-12.7 12.7-12.7 7 0 12.7 5.7 12.7 12.7 0 4.6-2.5 8.7-6.2 10.9.4.7.9 1.5 1.3 2.3 4.4-2.7 7.4-7.6 7.4-13.2" opacity=".5" fill="#3e3e3e"/><path d="M13.7 41.9c.4-.8.9-1.6 1.3-2.4-5.9-3.4-9.8-9.8-9.8-17.1C5.2 11.6 14.1 2.7 25 2.7s19.8 8.9 19.8 19.8c0 7.3-4 13.6-9.8 17.1.4.8.9 1.6 1.3 2.4 6.7-3.9 11.2-11.1 11.2-19.4C47.5 10.1 37.4 0 25 0S2.5 10.1 2.5 22.5c0 8.2 4.6 15.5 11.2 19.4" opacity=".2" fill="#3e3e3e"/><circle cx="25" cy="22.6" r="6.8" fill="#0072c6"/></g></svg>
        </g></g><g transform="translate(622.5 500)"><g transform="scale(2.78)">
            <svg svgBox="0 0 18 18" fill="msportalfx-svg-placeholder" role="presentation" focusable="false"><g><title/><defs><linearGradient id="ygc8_15" x1="9" x2="9" y1="15.83" y2="5.79" gradientUnits="userSpaceOnUse"><stop offset="0" stop-color="#32bedd"/><stop offset=".18" stop-color="#32caea"/><stop offset=".41" stop-color="#32d2f2"/><stop offset=".78" stop-color="#32d4f5"/></linearGradient></defs><title>Icon-networking-69</title><path fill="url(#ygc8_15)" d="M.5 5.79h17v9.48a.57.57 0 01-.57.57H1.07a.57.57 0 01-.57-.57V5.79z"/><path fill="#767676" d="M1.07 2.17h15.86a.57.57 0 01.57.57v3.05H.5V2.73a.57.57 0 01.57-.56z"/><circle cx="12.82" cy="10.19" r="1.38" fill="#f2f2f2"/><circle cx="9.06" cy="10.19" r="1.38" fill="#f2f2f2"/><circle cx="5.18" cy="10.19" r="1.38" fill="#f2f2f2"/><rect width="12.43" height="1.46" x="2.79" y="3.25" fill="#f2f2f2" rx=".28"/></g></svg>
        </g></g><g transform="translate(482.9166666666667 180)"><g transform="scale(2.78)">
            <svg svgBox="0 0 18 18" fill="msportalfx-svg-placeholder" role="presentation" focusable="false"><g><title/><defs><linearGradient id="ygc8_16" x1="9.01" x2="9.01" y1="16.5" y2="1.5" gradientUnits="userSpaceOnUse"><stop offset="0" stop-color="#5e9641"/><stop offset=".34" stop-color="#6baa42"/><stop offset=".67" stop-color="#73b743"/><stop offset="1" stop-color="#76bb43"/></linearGradient></defs><title>Icon-networking-80</title><path fill="#ffca00" d="M15.89 2.91h1.27a.34.34 0 01.34.34v3.5a.34.34 0 01-.34.34h-1.27V2.91zm0 6.09h1.27a.34.34 0 01.34.34v5.86a.34.34 0 01-.34.34h-1.27V9z"/><rect width="13.76" height="15" x="2.13" y="1.5" fill="url(#ygc8_16)" rx=".69"/><path fill="#b4ec36" d="M5.9 12.9h-.71a.2.2 0 01-.19-.21V4.34a.19.19 0 01.19-.2h1.93a.19.19 0 01.19.2.2.2 0 01-.19.21H5.38v7.93h.52a.2.2 0 01.19.21.21.21 0 01-.19.21z"/><path fill="#b4ec36" d="M6 13.92H4.4a.2.2 0 01-.19-.21L4.08 3.38a.2.2 0 01.06-.15.16.16 0 01.13-.06h2.85v.41H4.47l.12 9.92H6zm6-.92h-1.59a.19.19 0 01-.14-.07.18.18 0 01-.06-.14V7.9a.19.19 0 01.19-.2h.91V5.45h.38v2.44a.2.2 0 01-.18.21h-.91v4.42H12z"/><rect width="6.14" height="3.11" x="7.07" y="2.29" fill="#365615" rx=".26"/><rect width="4.9" height="1.09" x="5.86" y="12.69" fill="#365615" rx=".26" transform="rotate(90 8.305 13.235)"/><rect width="4.9" height="1.09" x="3.99" y="12.71" fill="#365615" rx=".26" transform="rotate(90 6.44 13.26)"/><rect width="4.9" height="1.09" x="9.98" y="12.71" fill="#f2f2f2" rx=".26" transform="rotate(90 12.425 13.255)"/><ellipse cx="8.11" cy="8.06" fill="#f2f2f2" rx="1.04" ry="1.12"/><path fill="#3b3b3b" d="M2.11 12.25H.84a.34.34 0 01-.34-.3V6.09a.34.34 0 01.34-.34h1.27v6.5z"/></g></svg>
        </g></g><g transform="translate(760 330)"><g transform="scale(2.78)">
            <svg svgBox="0 0 18 18" fill="msportalfx-svg-placeholder" role="presentation" focusable="false"><g><title/><defs><linearGradient id="ygc8_17" x1="8.88" x2="8.88" y1="12.21" y2=".21" gradientUnits="userSpaceOnUse"><stop offset="0" stop-color="#0078d4"/><stop offset=".82" stop-color="#5ea0ef"/></linearGradient><linearGradient id="ygc8_18" x1="8.88" x2="8.88" y1="16.84" y2="12.21" gradientUnits="userSpaceOnUse"><stop offset=".15" stop-color="#ccc"/><stop offset="1" stop-color="#707070"/></linearGradient></defs><title>Icon-compute-21</title><rect width="18" height="12" x="-.12" y=".21" fill="url(#ygc8_17)" rx=".6"/><path fill="#50e6ff" d="M11.88 4.46v3.49l-3 1.76v-3.5l3-1.75z"/><path fill="#c3f1ff" d="M11.88 4.46l-3 1.76-3-1.76 3-1.75 3 1.75z"/><path fill="#9cebff" d="M8.88 6.22v3.49l-3-1.76V4.46l3 1.76z"/><path fill="#c3f1ff" d="M5.88 7.95l3-1.74v3.5l-3-1.76z"/><path fill="#9cebff" d="M11.88 7.95l-3-1.74v3.5l3-1.76z"/><path fill="url(#ygc8_18)" d="M12.49 15.84c-1.78-.28-1.85-1.56-1.85-3.63H7.11c0 2.07-.06 3.35-1.84 3.63a1 1 0 00-.89 1h9a1 1 0 00-.89-1z"/></g></svg>
        </g></g><g transform="translate(632.9166666666666 180)"><g transform="scale(2.78)">
            <svg svgBox="0 0 18 18" fill="msportalfx-svg-placeholder" role="presentation" focusable="false"><g><title/><defs><linearGradient id="ygc8_19" x1="9.01" x2="9.01" y1="16.5" y2="1.5" gradientUnits="userSpaceOnUse"><stop offset="0" stop-color="#5e9641"/><stop offset=".34" stop-color="#6baa42"/><stop offset=".67" stop-color="#73b743"/><stop offset="1" stop-color="#76bb43"/></linearGradient></defs><title>Icon-networking-80</title><path fill="#ffca00" d="M15.89 2.91h1.27a.34.34 0 01.34.34v3.5a.34.34 0 01-.34.34h-1.27V2.91zm0 6.09h1.27a.34.34 0 01.34.34v5.86a.34.34 0 01-.34.34h-1.27V9z"/><rect width="13.76" height="15" x="2.13" y="1.5" fill="url(#ygc8_19)" rx=".69"/><path fill="#b4ec36" d="M5.9 12.9h-.71a.2.2 0 01-.19-.21V4.34a.19.19 0 01.19-.2h1.93a.19.19 0 01.19.2.2.2 0 01-.19.21H5.38v7.93h.52a.2.2 0 01.19.21.21.21 0 01-.19.21z"/><path fill="#b4ec36" d="M6 13.92H4.4a.2.2 0 01-.19-.21L4.08 3.38a.2.2 0 01.06-.15.16.16 0 01.13-.06h2.85v.41H4.47l.12 9.92H6zm6-.92h-1.59a.19.19 0 01-.14-.07.18.18 0 01-.06-.14V7.9a.19.19 0 01.19-.2h.91V5.45h.38v2.44a.2.2 0 01-.18.21h-.91v4.42H12z"/><rect width="6.14" height="3.11" x="7.07" y="2.29" fill="#365615" rx=".26"/><rect width="4.9" height="1.09" x="5.86" y="12.69" fill="#365615" rx=".26" transform="rotate(90 8.305 13.235)"/><rect width="4.9" height="1.09" x="3.99" y="12.71" fill="#365615" rx=".26" transform="rotate(90 6.44 13.26)"/><rect width="4.9" height="1.09" x="9.98" y="12.71" fill="#f2f2f2" rx=".26" transform="rotate(90 12.425 13.255)"/><ellipse cx="8.11" cy="8.06" fill="#f2f2f2" rx="1.04" ry="1.12"/><path fill="#3b3b3b" d="M2.11 12.25H.84a.34.34 0 01-.34-.3V6.09a.34.34 0 01.34-.34h1.27v6.5z"/></g></svg>
        </g></g><g transform="translate(910 330)"><g transform="scale(2.78)">
            <svg svgBox="0 0 18 18" fill="msportalfx-svg-placeholder" role="presentation" focusable="false"><g><title/><defs><linearGradient id="ygc8_20" x1="8.88" x2="8.88" y1="12.21" y2=".21" gradientUnits="userSpaceOnUse"><stop offset="0" stop-color="#0078d4"/><stop offset=".82" stop-color="#5ea0ef"/></linearGradient><linearGradient id="ygc8_21" x1="8.88" x2="8.88" y1="16.84" y2="12.21" gradientUnits="userSpaceOnUse"><stop offset=".15" stop-color="#ccc"/><stop offset="1" stop-color="#707070"/></linearGradient></defs><title>Icon-compute-21</title><rect width="18" height="12" x="-.12" y=".21" fill="url(#ygc8_20)" rx=".6"/><path fill="#50e6ff" d="M11.88 4.46v3.49l-3 1.76v-3.5l3-1.75z"/><path fill="#c3f1ff" d="M11.88 4.46l-3 1.76-3-1.76 3-1.75 3 1.75z"/><path fill="#9cebff" d="M8.88 6.22v3.49l-3-1.76V4.46l3 1.76z"/><path fill="#c3f1ff" d="M5.88 7.95l3-1.74v3.5l-3-1.76z"/><path fill="#9cebff" d="M11.88 7.95l-3-1.74v3.5l3-1.76z"/><path fill="url(#ygc8_21)" d="M12.49 15.84c-1.78-.28-1.85-1.56-1.85-3.63H7.11c0 2.07-.06 3.35-1.84 3.63a1 1 0 00-.89 1h9a1 1 0 00-.89-1z"/></g></svg>
        </g></g><g transform="translate(327.92593420211506 46.34375)"><text font-family="Arial" font-size="12px" font-style="normal" font-weight="normal" text-anchor="start" fill="rgb(0,0,0)" fill-opacity="1" dy="1em" transform="translate(0 0)">OffSec-VNET</text></g><g transform="translate(307.23703865754203 126.34375)"><text font-family="Arial" font-size="12px" font-style="normal" font-weight="normal" text-anchor="start" fill="rgb(0,0,0)" fill-opacity="1" dy="1em" transform="translate(0 0)">OffSec-VNET-Subnet</text></g><g transform="translate(134.40011906966822 226.34375)"><text font-family="Arial" font-size="12px" font-style="normal" font-weight="normal" text-anchor="start" fill="rgb(0,0,0)" fill-opacity="1" dy="1em" transform="translate(0 0)">offsec-jumpbox487</text></g><g transform="translate(-9.586621205478558 376.34375)"><text font-family="Arial" font-size="12px" font-style="normal" font-weight="normal" text-anchor="start" fill="rgb(0,0,0)" fill-opacity="1" dy="1em" transform="translate(0 0)">OffSec-Jumpbox</text></g><g transform="translate(444.0910790648386 376.34375)"><text font-family="Arial" font-size="12px" font-style="normal" font-weight="normal" text-anchor="start" fill="rgb(0,0,0)" fill-opacity="1" dy="1em" transform="translate(0 0)">OffSec-Firewall</text></g><g transform="translate(133.7437008540897 376.34375)"><text font-family="Arial" font-size="12px" font-style="normal" font-weight="normal" text-anchor="start" fill="rgb(0,0,0)" fill-opacity="1" dy="1em" transform="translate(0 0)">OffSec-Jumpbox-ip</text></g><g transform="translate(313.655324130515 226.34375)"><text font-family="Arial" font-size="12px" font-style="normal" font-weight="normal" text-anchor="start" fill="rgb(0,0,0)" fill-opacity="1" dy="1em" transform="translate(0 0)">offsec-web-1460</text></g><g transform="translate(297.19734383498695 376.34375)"><text font-family="Arial" font-size="12px" font-style="normal" font-weight="normal" text-anchor="start" fill="rgb(0,0,0)" fill-opacity="1" dy="1em" transform="translate(0 0)">OffSec-Web-1</text></g><g transform="translate(577.3993015829848 376.34375)"><text font-family="Arial" font-size="12px" font-style="normal" font-weight="normal" text-anchor="start" fill="rgb(0,0,0)" fill-opacity="1" dy="1em" transform="translate(0 0)">OffSec-Backend-Pool</text></g><g transform="translate(607.4245740687774 456.34375)"><text font-family="Arial" font-size="12px" font-style="normal" font-weight="normal" text-anchor="start" fill="rgb(0,0,0)" fill-opacity="1" dy="1em" transform="translate(0 0)">OffSec-LB</text></g><g transform="translate(459.588917611878 546.34375)"><text font-family="Arial" font-size="12px" font-style="normal" font-weight="normal" text-anchor="start" fill="rgb(0,0,0)" fill-opacity="1" dy="1em" transform="translate(0 0)">OffSec-LB-HP</text></g><g transform="translate(591.4524339680589 546.34375)"><text font-family="Arial" font-size="12px" font-style="normal" font-weight="normal" text-anchor="start" fill="rgb(0,0,0)" fill-opacity="1" dy="1em" transform="translate(0 0)">LoadBalancerFront...</text></g><g transform="translate(463.655324130515 226.34375)"><text font-family="Arial" font-size="12px" font-style="normal" font-weight="normal" text-anchor="start" fill="rgb(0,0,0)" fill-opacity="1" dy="1em" transform="translate(0 0)">offsec-web-2675</text></g><g transform="translate(747.197343834987 376.34375)"><text font-family="Arial" font-size="12px" font-style="normal" font-weight="normal" text-anchor="start" fill="rgb(0,0,0)" fill-opacity="1" dy="1em" transform="translate(0 0)">OffSec-Web-2</text></g><g transform="translate(613.6553241305149 226.34375)"><text font-family="Arial" font-size="12px" font-style="normal" font-weight="normal" text-anchor="start" fill="rgb(0,0,0)" fill-opacity="1" dy="1em" transform="translate(0 0)">offsec-web-3560</text></g><g transform="translate(897.197343834987 376.34375)"><text font-family="Arial" font-size="12px" font-style="normal" font-weight="normal" text-anchor="start" fill="rgb(0,0,0)" fill-opacity="1" dy="1em" transform="translate(0 0)">OffSec-Web-3</text></g></g></svg>